<?xml version="1.0" encoding="UTF-8" standalone="no"?><!DOCTYPE svg PUBLIC "-//W3C//DTD SVG 1.1//EN" "http://www.w3.org/Graphics/SVG/1.1/DTD/svg11.dtd"><!-- Generated by graphviz version 2.39.20160930.0541 (20160930.0541) --><!-- Title: FlowChart Pages: 1 --><svg width="617pt" height="426pt" viewBox="0.00 0.00 617 425.79" xmlns="http://www.w3.org/2000/svg" xmlns:xlink="http://www.w3.org/1999/xlink"><defs><radialGradient id="g-terminatorvzvllf91sbydz3f4z70c0udi" cx="0.5" cy="0.5" fx="0.9" fy="0.9" r="1" x1="0%" x2="0%" y1="100%" y2="0%" spreadMethod="pad"><stop offset="0%" stop-color="#C32F06" stop-opacity="1"/><stop offset="100%" stop-color="#C32F06" stop-opacity="1"/></radialGradient><radialGradient id="g-decisionvzvllf91sbydz3f4z70c0udi" cx="0.5" cy="0.5" fx="0.9" fy="0.9" r="1" x1="0%" x2="0%" y1="100%" y2="0%" spreadMethod="pad"><stop offset="0%" stop-color="#d1461b" stop-opacity="1"/><stop offset="100%" stop-color="#d1461b" stop-opacity="1"/></radialGradient><radialGradient id="g-processvzvllf91sbydz3f4z70c0udi" cx="0.5" cy="0.5" fx="0.9" fy="0.9" r="1" x1="0%" x2="0%" y1="100%" y2="0%" spreadMethod="pad"><stop offset="0%" stop-color="#3f51b5" stop-opacity="1"/><stop offset="100%" stop-color="#3f51b5" stop-opacity="1"/></radialGradient><radialGradient id="g-defaultvzvllf91sbydz3f4z70c0udi" cx="0.5" cy="0.5" fx="0.9" fy="0.9" r="1" x1="0%" x2="0%" y1="100%" y2="0%" spreadMethod="pad"><stop offset="0%" stop-color="#005100" stop-opacity="1"/><stop offset="100%" stop-color="#005100" stop-opacity="1"/></radialGradient><radialGradient id="g-modulevzvllf91sbydz3f4z70c0udi" cx="0.5" cy="0.5" fx="0.9" fy="0.9" r="1" x1="0%" x2="0%" y1="100%" y2="0%" spreadMethod="pad"><stop offset="0%" stop-color="#009688" stop-opacity="1"/><stop offset="100%" stop-color="#009688" stop-opacity="1"/></radialGradient><radialGradient id="g-dataiovzvllf91sbydz3f4z70c0udi" cx="0.5" cy="0.5" fx="0.9" fy="0.9" r="1" x1="0%" x2="0%" y1="100%" y2="0%" spreadMethod="pad"><stop offset="0%" stop-color="#607d8b" stop-opacity="1"/><stop offset="100%" stop-color="#607d8b" stop-opacity="1"/></radialGradient><radialGradient id="g-preparationvzvllf91sbydz3f4z70c0udi" cx="0.5" cy="0.5" fx="0.9" fy="0.9" r="1" x1="0%" x2="0%" y1="100%" y2="0%" spreadMethod="pad"><stop offset="0%" stop-color="#607d8b" stop-opacity="1"/><stop offset="100%" stop-color="#607d8b" stop-opacity="1"/></radialGradient><radialGradient id="g-commentvzvllf91sbydz3f4z70c0udi" cx="0.5" cy="0.5" fx="0.9" fy="0.9" r="1" x1="0%" x2="0%" y1="100%" y2="0%" spreadMethod="pad"><stop offset="0%" stop-color="#ffab40" stop-opacity="1"/><stop offset="100%" stop-color="#ffab40" stop-opacity="1"/></radialGradient><radialGradient id="g-manualvzvllf91sbydz3f4z70c0udi" cx="0.5" cy="0.5" fx="0.9" fy="0.9" r="1" x1="0%" x2="0%" y1="100%" y2="0%" spreadMethod="pad"><stop offset="0%" stop-color="#673ab7" stop-opacity="1"/><stop offset="100%" stop-color="#673ab7" stop-opacity="1"/></radialGradient></defs><g id="page0,1_graph0" class="graph" transform="scale(0.359155 0.359155) rotate(0) translate(4 1167.6)"><title>FlowChart</title><g id="clust1" class="cluster"><title>cluster_block_16</title><polygon fill="transparent" stroke="#000000" points="926,-678 926,-793 1054,-793 1054,-678 926,-678"/><text text-anchor="start" x="953.5" y="-781" font-family="Open Sans" font-size="10.00" fill="#000000">recitation_calc </text></g><g id="clust2" class="cluster"><title>cluster_block_18</title><polygon fill="transparent" stroke="#000000" points="924,-8 924,-563 1292,-563 1292,-8 924,-8"/><text text-anchor="start" x="1080.5" y="-551" font-family="Open Sans" font-size="10.00" fill="#000000">simple_calc</text><text text-anchor="start" x="1091.5" y="-540" font-family="Open Sans" font-size="10.00" fill="#000000">(string)</text></g><g id="clust3" class="cluster"><title>cluster_block_27</title><polygon fill="transparent" stroke="#000000" points="1292,-300 1292,-540.5 1470,-540.5 1470,-300 1292,-300"/><text text-anchor="start" x="1350" y="-528.5" font-family="Open Sans" font-size="10.00" fill="#000000">ask_numbers</text></g><g id="clust4" class="cluster"><title>cluster_block_30</title><polygon fill="transparent" stroke="#000000" points="1069,-590 1069,-792.5 1247,-792.5 1247,-590 1069,-590"/><text text-anchor="start" x="1129.5" y="-780.5" font-family="Open Sans" font-size="10.00" fill="#000000">ask_weights</text></g><g id="clust5" class="cluster"><title>cluster_block_33</title><polygon fill="transparent" stroke="#000000" points="1470,-159 1470,-414 1688,-414 1688,-159 1470,-159"/><text text-anchor="start" x="1555.5" y="-402" font-family="Open Sans" font-size="10.00" fill="#000000">class_calc</text></g><!-- terminator_block_1 --><g id="node1" class="node"><title>terminator_block_1</title><ellipse fill="url(#g-terminatorvzvllf91sbydz3f4z70c0udi)" stroke="#C32F06" cx="780" cy="-1145.6" rx="59.4099" ry="18"/><text text-anchor="start" x="737.5" y="-1143.1" font-family="Open Sans" font-size="10.00" fill="white">Start the program</text></g><!-- nop_block_2 --><g id="node2" class="node"><title>nop_block_2</title><ellipse fill="#000000" stroke="#000000" cx="780" cy="-1098.8" rx="1.8" ry="1.8"/><text text-anchor="start" x="775.2" y="-1104.6" font-family="Open Sans" font-weight="bold" font-size="10.00" fill="#000000"> </text></g><!-- terminator_block_1&#45;&gt;nop_block_2 --><g id="edge1" class="edge"><title>terminator_block_1->nop_block_2</title><path fill="none" stroke="#000000" d="M780,-1127.37C780,-1117.11 780,-1105.44 780,-1100.83"/></g><!-- ifs_block_3 --><g id="node3" class="node"><title>ifs_block_3</title><polygon fill="url(#g-decisionvzvllf91sbydz3f4z70c0udi)" stroke="#d1461b" points="646,-1070 558.676,-1052 646,-1034 733.324,-1052 646,-1070"/><text text-anchor="start" x="601.5" y="-1049.5" font-family="Open Sans" font-size="10.00" fill="white">wants to calculate</text></g><!-- nop_block_2&#45;&gt;ifs_block_3 --><g id="edge24" class="edge"><title>nop_block_2->ifs_block_3</title><path fill="none" stroke="#000000" d="M778.106,-1098.14C768.365,-1094.74 723.023,-1078.9 688.148,-1066.72"/><polygon fill="#000000" stroke="#000000" points="689.222,-1063.39 678.627,-1063.4 686.914,-1070 689.222,-1063.39"/></g><!-- process_block_4 --><g id="node4" class="node"><title>process_block_4</title><polygon fill="url(#g-processvzvllf91sbydz3f4z70c0udi)" stroke="#3f51b5" points="598.5,-997 485.5,-997 485.5,-961 598.5,-961 598.5,-997"/><text text-anchor="start" x="492.5" y="-976.5" font-family="Open Sans" font-size="10.00" fill="white">Ask Calculation Type</text></g><!-- ifs_block_3&#45;&gt;process_block_4 --><g id="edge2" class="edge"><title>ifs_block_3->process_block_4</title><path fill="none" stroke="#000000" d="M625.948,-1037.92C611.874,-1028.05 592.702,-1014.59 576.233,-1003.03"/><polygon fill="#000000" stroke="#000000" points="578.104,-1000.07 567.908,-997.186 574.082,-1005.8 578.104,-1000.07"/><text text-anchor="start" x="601" y="-1014" font-family="Open Sans" font-weight="bold" font-size="10.00" fill="#000000"> True </text></g><!-- ifs_block_5 --><g id="node5" class="node"><title>ifs_block_5</title><polygon fill="url(#g-decisionvzvllf91sbydz3f4z70c0udi)" stroke="#d1461b" points="385,-934 355.725,-916 385,-898 414.275,-916 385,-934"/><text text-anchor="start" x="375.5" y="-913.5" font-family="Open Sans" font-size="10.00" fill="white">test</text></g><!-- process_block_4&#45;&gt;ifs_block_5 --><g id="edge3" class="edge"><title>process_block_4->ifs_block_5</title><path fill="none" stroke="#000000" d="M497.01,-960.947C469.577,-949.939 435.423,-936.234 412.088,-926.87"/><polygon fill="#000000" stroke="#000000" points="413.385,-923.619 402.801,-923.143 410.778,-930.115 413.385,-923.619"/></g><!-- module_block_6 --><g id="node6" class="node"><title>module_block_6</title><polygon fill="url(#g-modulevzvllf91sbydz3f4z70c0udi)" stroke="#009688" points="0,-445.5 0,-482.5 2,-482.5 2,-445.5 0,-445.5"/><polygon fill="url(#g-modulevzvllf91sbydz3f4z70c0udi)" stroke="#009688" points="2,-445.5 2,-482.5 83,-482.5 83,-445.5 2,-445.5"/><text text-anchor="start" x="15" y="-461.5" font-family="Open Sans" font-size="10.00" fill="white">simple_calc</text><polygon fill="url(#g-modulevzvllf91sbydz3f4z70c0udi)" stroke="#009688" points="83,-445.5 83,-482.5 86,-482.5 86,-445.5 83,-445.5"/></g><!-- ifs_block_5&#45;&gt;module_block_6 --><g id="edge4" class="edge"><title>ifs_block_5->module_block_6</title><path fill="none" stroke="#000000" d="M359.946,-913.243C281.845,-904.314 48,-874.915 48,-843 48,-843 48,-843 48,-628 48,-580.798 45.8923,-525.967 44.4138,-493.311"/><polygon fill="#000000" stroke="#000000" points="47.9012,-492.956 43.9405,-483.13 40.9087,-493.281 47.9012,-492.956"/><text text-anchor="start" x="48" y="-715" font-family="Open Sans" font-weight="bold" font-size="10.00" fill="#000000"> True </text></g><!-- ifs_block_7 --><g id="node7" class="node"><title>ifs_block_7</title><polygon fill="url(#g-decisionvzvllf91sbydz3f4z70c0udi)" stroke="#d1461b" points="385,-861 332.606,-843 385,-825 437.394,-843 385,-861"/><text text-anchor="start" x="361.5" y="-840.5" font-family="Open Sans" font-size="10.00" fill="white">recitation</text></g><!-- ifs_block_5&#45;&gt;ifs_block_7 --><g id="edge6" class="edge"><title>ifs_block_5->ifs_block_7</title><path fill="none" stroke="#000000" d="M385,-897.955C385,-889.883 385,-880.176 385,-871.182"/><polygon fill="#000000" stroke="#000000" points="388.5,-871.09 385,-861.09 381.5,-871.09 388.5,-871.09"/><text text-anchor="start" x="385" y="-878" font-family="Open Sans" font-weight="bold" font-size="10.00" fill="#000000"> False </text></g><!-- process_block_15 --><g id="node15" class="node"><title>process_block_15</title><polygon fill="url(#g-processvzvllf91sbydz3f4z70c0udi)" stroke="#3f51b5" points="516,-278 356,-278 356,-242 516,-242 516,-278"/><text text-anchor="start" x="363" y="-257.5" font-family="Open Sans" font-size="10.00" fill="white">Ask if want to keep calculating</text></g><!-- module_block_6&#45;&gt;process_block_15 --><g id="edge18" class="edge"><title>module_block_6->process_block_15</title><path fill="none" stroke="#000000" d="M45.7554,-445.738C52.224,-409.098 72.0476,-328.351 125,-291 142.762,-278.471 260.132,-269.481 345.458,-264.509"/><polygon fill="#000000" stroke="#000000" points="345.912,-267.989 355.696,-263.922 345.512,-261 345.912,-267.989"/></g><!-- module_block_19 --><g id="node17" class="node"><title>module_block_19</title><polygon fill="url(#g-modulevzvllf91sbydz3f4z70c0udi)" stroke="#009688" points="947,-445.5 947,-482.5 949,-482.5 949,-445.5 947,-445.5"/><polygon fill="url(#g-modulevzvllf91sbydz3f4z70c0udi)" stroke="#009688" points="949,-445.5 949,-482.5 1037,-482.5 1037,-445.5 949,-445.5"/><text text-anchor="start" x="962" y="-461.5" font-family="Open Sans" font-size="10.00" fill="white">ask_numbers</text><polygon fill="url(#g-modulevzvllf91sbydz3f4z70c0udi)" stroke="#009688" points="1037,-445.5 1037,-482.5 1040,-482.5 1040,-445.5 1037,-445.5"/></g><!-- module_block_6&#45;&gt;module_block_19 --><g id="edge5" class="edge"><title>module_block_6->module_block_19</title><path fill="none" stroke="#000000" stroke-dasharray="1,5" d="M86.0429,-480.557C144.562,-501.448 252.955,-536.834 349,-550 469.649,-566.539 783.193,-593.333 897,-550 932.041,-536.658 962.434,-504.006 979.189,-483.134"/><text text-anchor="start" x="575.5" y="-575" font-family="Open Sans" font-weight="bold" font-size="10.00" fill="#000000"> test </text></g><!-- module_block_8 --><g id="node8" class="node"><title>module_block_8</title><polygon fill="url(#g-modulevzvllf91sbydz3f4z70c0udi)" stroke="#009688" points="284,-697.5 284,-734.5 286,-734.5 286,-697.5 284,-697.5"/><polygon fill="url(#g-modulevzvllf91sbydz3f4z70c0udi)" stroke="#009688" points="286,-697.5 286,-734.5 382,-734.5 382,-697.5 286,-697.5"/><text text-anchor="start" x="299" y="-713.5" font-family="Open Sans" font-size="10.00" fill="white">recitation_calc</text><polygon fill="url(#g-modulevzvllf91sbydz3f4z70c0udi)" stroke="#009688" points="382,-697.5 382,-734.5 385,-734.5 385,-697.5 382,-697.5"/></g><!-- ifs_block_7&#45;&gt;module_block_8 --><g id="edge7" class="edge"><title>ifs_block_7->module_block_8</title><path fill="none" stroke="#000000" d="M364.603,-831.9C357.215,-826.823 349.571,-820.114 345,-812 333.542,-791.663 331.321,-765.042 331.663,-745.074"/><polygon fill="#000000" stroke="#000000" points="335.163,-745.158 332.058,-735.028 328.168,-744.883 335.163,-745.158"/><text text-anchor="start" x="345" y="-805" font-family="Open Sans" font-weight="bold" font-size="10.00" fill="#000000"> True </text></g><!-- ifs_block_9 --><g id="node9" class="node"><title>ifs_block_9</title><polygon fill="url(#g-decisionvzvllf91sbydz3f4z70c0udi)" stroke="#d1461b" points="477,-734.5 450,-716.5 477,-698.5 504,-716.5 477,-734.5"/><text text-anchor="start" x="469.5" y="-714" font-family="Open Sans" font-size="10.00" fill="white">lab</text></g><!-- ifs_block_7&#45;&gt;ifs_block_9 --><g id="edge9" class="edge"><title>ifs_block_7->ifs_block_9</title><path fill="none" stroke="#000000" d="M395.554,-828.489C411.851,-806.08 443.209,-762.963 461.902,-737.26"/><polygon fill="#000000" stroke="#000000" points="464.889,-739.103 467.94,-728.957 459.228,-734.986 464.889,-739.103"/><text text-anchor="start" x="415" y="-805" font-family="Open Sans" font-weight="bold" font-size="10.00" fill="#000000"> False </text></g><!-- module_block_8&#45;&gt;process_block_15 --><g id="edge19" class="edge"><title>module_block_8->process_block_15</title><path fill="none" stroke="#000000" d="M328.47,-697.841C311.117,-635.267 263.84,-429.543 350,-300 354.201,-293.684 359.674,-288.347 365.826,-283.839"/><polygon fill="#000000" stroke="#000000" points="368.073,-286.555 374.579,-278.193 364.279,-280.672 368.073,-286.555"/></g><!-- module_block_17 --><g id="node16" class="node"><title>module_block_17</title><polygon fill="url(#g-modulevzvllf91sbydz3f4z70c0udi)" stroke="#009688" points="946,-697.5 946,-734.5 948,-734.5 948,-697.5 946,-697.5"/><polygon fill="url(#g-modulevzvllf91sbydz3f4z70c0udi)" stroke="#009688" points="948,-697.5 948,-734.5 1031,-734.5 1031,-697.5 948,-697.5"/><text text-anchor="start" x="961" y="-713.5" font-family="Open Sans" font-size="10.00" fill="white">ask_weights</text><polygon fill="url(#g-modulevzvllf91sbydz3f4z70c0udi)" stroke="#009688" points="1031,-697.5 1031,-734.5 1034,-734.5 1034,-697.5 1031,-697.5"/></g><!-- module_block_8&#45;&gt;module_block_17 --><g id="edge8" class="edge"><title>module_block_8->module_block_17</title><path fill="none" stroke="#000000" stroke-dasharray="1,5" d="M348.221,-735.36C367.818,-759.324 405.713,-798.806 449.5,-809 539.32,-829.911 774.68,-829.911 864.5,-809 910.633,-798.26 952.34,-758.978 974.114,-735.195"/></g><!-- module_block_10 --><g id="node10" class="node"><title>module_block_10</title><polygon fill="url(#g-modulevzvllf91sbydz3f4z70c0udi)" stroke="#009688" points="382,-445.5 382,-482.5 384,-482.5 384,-445.5 382,-445.5"/><polygon fill="url(#g-modulevzvllf91sbydz3f4z70c0udi)" stroke="#009688" points="384,-445.5 384,-482.5 465,-482.5 465,-445.5 384,-445.5"/><text text-anchor="start" x="397" y="-461.5" font-family="Open Sans" font-size="10.00" fill="white">simple_calc</text><polygon fill="url(#g-modulevzvllf91sbydz3f4z70c0udi)" stroke="#009688" points="465,-445.5 465,-482.5 468,-482.5 468,-445.5 465,-445.5"/></g><!-- ifs_block_9&#45;&gt;module_block_10 --><g id="edge10" class="edge"><title>ifs_block_9->module_block_10</title><path fill="none" stroke="#000000" d="M472.26,-701.487C467.893,-687.292 461.437,-665.345 457,-646 444.748,-592.583 434.566,-529.397 429.169,-493.426"/><polygon fill="#000000" stroke="#000000" points="432.578,-492.556 427.65,-483.177 425.654,-493.582 432.578,-492.556"/><text text-anchor="start" x="457" y="-626.5" font-family="Open Sans" font-weight="bold" font-size="10.00" fill="#000000"> True </text></g><!-- ifs_block_11 --><g id="node11" class="node"><title>ifs_block_11</title><polygon fill="url(#g-decisionvzvllf91sbydz3f4z70c0udi)" stroke="#d1461b" points="579,-646 519.785,-628 579,-610 638.215,-628 579,-646"/><text text-anchor="start" x="551.5" y="-625.5" font-family="Open Sans" font-size="10.00" fill="white">assignment</text></g><!-- ifs_block_9&#45;&gt;ifs_block_11 --><g id="edge12" class="edge"><title>ifs_block_9->ifs_block_11</title><path fill="none" stroke="#000000" d="M489.101,-706C505.5,-691.772 535.109,-666.082 555.851,-648.085"/><polygon fill="#000000" stroke="#000000" points="558.332,-650.566 563.591,-641.369 553.744,-645.279 558.332,-650.566"/><text text-anchor="start" x="544" y="-663" font-family="Open Sans" font-weight="bold" font-size="10.00" fill="#000000"> False </text></g><!-- module_block_10&#45;&gt;process_block_15 --><g id="edge20" class="edge"><title>module_block_10->process_block_15</title><path fill="none" stroke="#000000" d="M396.5,-445.932C392.654,-442.135 389.26,-437.808 387,-433 360.157,-375.882 356.557,-346.283 387,-291 388.105,-288.994 389.4,-287.1 390.843,-285.313"/><polygon fill="#000000" stroke="#000000" points="393.399,-287.707 397.987,-278.157 388.445,-282.761 393.399,-287.707"/></g><!-- module_block_10&#45;&gt;module_block_19 --><g id="edge11" class="edge"><title>module_block_10->module_block_19</title><path fill="none" stroke="#000000" stroke-dasharray="1,5" d="M434.783,-483.011C446.927,-503.767 469.784,-536.311 500,-550 580.361,-586.405 814.552,-581.392 897,-550 932.041,-536.658 962.434,-504.006 979.189,-483.134"/><text text-anchor="start" x="605.5" y="-575" font-family="Open Sans" font-weight="bold" font-size="10.00" fill="#000000"> lab </text></g><!-- module_block_12 --><g id="node12" class="node"><title>module_block_12</title><polygon fill="url(#g-modulevzvllf91sbydz3f4z70c0udi)" stroke="#009688" points="533,-445.5 533,-482.5 535,-482.5 535,-445.5 533,-445.5"/><polygon fill="url(#g-modulevzvllf91sbydz3f4z70c0udi)" stroke="#009688" points="535,-445.5 535,-482.5 616,-482.5 616,-445.5 535,-445.5"/><text text-anchor="start" x="548" y="-461.5" font-family="Open Sans" font-size="10.00" fill="white">simple_calc</text><polygon fill="url(#g-modulevzvllf91sbydz3f4z70c0udi)" stroke="#009688" points="616,-445.5 616,-482.5 619,-482.5 619,-445.5 616,-445.5"/></g><!-- ifs_block_11&#45;&gt;module_block_12 --><g id="edge13" class="edge"><title>ifs_block_11->module_block_12</title><path fill="none" stroke="#000000" d="M559.32,-615.929C548.156,-607.863 535.209,-596.149 529,-582 515.495,-551.225 534.91,-515.277 552.725,-491.325"/><polygon fill="#000000" stroke="#000000" points="555.527,-493.423 558.903,-483.381 550.001,-489.126 555.527,-493.423"/><text text-anchor="start" x="529" y="-575" font-family="Open Sans" font-weight="bold" font-size="10.00" fill="#000000"> True </text></g><!-- ifs_block_13 --><g id="node13" class="node"><title>ifs_block_13</title><polygon fill="url(#g-decisionvzvllf91sbydz3f4z70c0udi)" stroke="#d1461b" points="717,-482.5 683.899,-464.5 717,-446.5 750.101,-464.5 717,-482.5"/><text text-anchor="start" x="705" y="-462" font-family="Open Sans" font-size="10.00" fill="white">class</text></g><!-- ifs_block_11&#45;&gt;ifs_block_13 --><g id="edge15" class="edge"><title>ifs_block_11->ifs_block_13</title><path fill="none" stroke="#000000" d="M620.426,-622.579C646.633,-616.922 679.032,-605.402 698,-582 718.607,-556.575 720.989,-517.638 719.809,-491.638"/><polygon fill="#000000" stroke="#000000" points="723.281,-491.111 719.127,-481.364 716.297,-491.574 723.281,-491.111"/><text text-anchor="start" x="706" y="-575" font-family="Open Sans" font-weight="bold" font-size="10.00" fill="#000000"> False </text></g><!-- module_block_12&#45;&gt;process_block_15 --><g id="edge21" class="edge"><title>module_block_12->process_block_15</title><path fill="none" stroke="#000000" d="M539.436,-445.799C525.976,-437.507 511.476,-426.725 501,-414 469.876,-376.196 451.542,-321.321 442.659,-288.304"/><polygon fill="#000000" stroke="#000000" points="445.992,-287.209 440.103,-278.401 439.214,-288.959 445.992,-287.209"/></g><!-- module_block_12&#45;&gt;module_block_19 --><g id="edge14" class="edge"><title>module_block_12->module_block_19</title><path fill="none" stroke="#000000" stroke-dasharray="1,5" d="M585.783,-483.011C597.927,-503.767 620.784,-536.311 651,-550 750.591,-595.117 794.823,-588.904 897,-550 932.041,-536.658 962.434,-504.006 979.189,-483.134"/><text text-anchor="start" x="631.5" y="-575" font-family="Open Sans" font-weight="bold" font-size="10.00" fill="#000000"> assignment </text></g><!-- module_block_14 --><g id="node14" class="node"><title>module_block_14</title><polygon fill="url(#g-modulevzvllf91sbydz3f4z70c0udi)" stroke="#009688" points="534,-319 534,-356 536,-356 536,-319 534,-319"/><polygon fill="url(#g-modulevzvllf91sbydz3f4z70c0udi)" stroke="#009688" points="536,-319 536,-356 609,-356 609,-319 536,-319"/><text text-anchor="start" x="549" y="-335" font-family="Open Sans" font-size="10.00" fill="white">class_calc</text><polygon fill="url(#g-modulevzvllf91sbydz3f4z70c0udi)" stroke="#009688" points="609,-319 609,-356 612,-356 612,-319 609,-319"/></g><!-- ifs_block_13&#45;&gt;module_block_14 --><g id="edge16" class="edge"><title>ifs_block_13->module_block_14</title><path fill="none" stroke="#000000" d="M699.168,-455.752C688.233,-449.996 674.227,-441.899 663,-433 637.18,-412.534 611.732,-384.769 594.52,-364.543"/><polygon fill="#000000" stroke="#000000" points="597.006,-362.06 587.896,-356.651 591.644,-366.56 597.006,-362.06"/><text text-anchor="start" x="663" y="-426" font-family="Open Sans" font-weight="bold" font-size="10.00" fill="#000000"> True </text></g><!-- ifs_block_13&#45;&gt;process_block_15 --><g id="edge23" class="edge"><title>ifs_block_13->process_block_15</title><path fill="none" stroke="#000000" d="M714.852,-447.462C709.582,-413.375 692.681,-336.897 644,-300 625.258,-285.795 573.323,-275.799 526.041,-269.353"/><polygon fill="#000000" stroke="#000000" points="526.408,-265.871 516.036,-268.031 525.491,-272.811 526.408,-265.871"/><text text-anchor="start" x="708" y="-336.5" font-family="Open Sans" font-weight="bold" font-size="10.00" fill="#000000"> False </text></g><!-- module_block_14&#45;&gt;process_block_15 --><g id="edge22" class="edge"><title>module_block_14->process_block_15</title><path fill="none" stroke="#000000" d="M540.185,-319.317C521.153,-308.481 497.022,-294.743 476.778,-283.216"/><polygon fill="#000000" stroke="#000000" points="478.496,-280.168 468.074,-278.261 475.033,-286.251 478.496,-280.168"/></g><!-- terminator_block_34 --><g id="node29" class="node"><title>terminator_block_34</title><ellipse fill="url(#g-terminatorvzvllf91sbydz3f4z70c0udi)" stroke="#C32F06" cx="1579" cy="-338" rx="88.7764" ry="18"/><text text-anchor="start" x="1511.5" y="-335.5" font-family="Open Sans" font-size="10.00" fill="white">get weights for each section</text></g><!-- module_block_14&#45;&gt;terminator_block_34 --><g id="edge17" class="edge"><title>module_block_14->terminator_block_34</title><path fill="none" stroke="#000000" stroke-dasharray="1,5" d="M588.083,-356.666C608.802,-380.399 648.639,-419.556 693.5,-430 775.745,-449.148 1371.26,-449.148 1453.5,-430 1500.07,-419.157 1542.24,-379.328 1563.83,-355.779"/></g><!-- process_block_15&#45;&gt;nop_block_2 --><g id="edge25" class="edge"><title>process_block_15->nop_block_2</title><path fill="none" stroke="#000000" d="M516.341,-265.638C604.75,-272.533 736.827,-285.137 755,-300 855.362,-382.083 848,-446.846 848,-576.5 848,-1052 848,-1052 848,-1052 848,-1078.91 811.415,-1091.52 791.915,-1096.33"/><polygon fill="#000000" stroke="#000000" points="791.005,-1092.95 781.962,-1098.47 792.474,-1099.79 791.005,-1092.95"/></g><!-- terminator_block_31 --><g id="node27" class="node"><title>terminator_block_31</title><ellipse fill="url(#g-terminatorvzvllf91sbydz3f4z70c0udi)" stroke="#C32F06" cx="1158" cy="-716.5" rx="58.7329" ry="18"/><text text-anchor="start" x="1116" y="-714" font-family="Open Sans" font-size="10.00" fill="white">get a list of items</text></g><!-- module_block_17&#45;&gt;terminator_block_31 --><g id="edge26" class="edge"><title>module_block_17->terminator_block_31</title><path fill="none" stroke="#000000" stroke-dasharray="1,5" d="M1034.3,-716.5C1055.88,-716.5 1077.46,-716.5 1099.05,-716.5"/></g><!-- process_block_20 --><g id="node18" class="node"><title>process_block_20</title><polygon fill="url(#g-processvzvllf91sbydz3f4z70c0udi)" stroke="#3f51b5" points="1041,-356 987,-356 987,-320 1041,-320 1041,-356"/><text text-anchor="start" x="1002.5" y="-335.5" font-family="Open Sans" font-size="10.00" fill="white">i is 0</text></g><!-- module_block_19&#45;&gt;process_block_20 --><g id="edge28" class="edge"><title>module_block_19->process_block_20</title><path fill="none" stroke="#000000" d="M996.099,-445.834C999.577,-424.881 1005.26,-390.645 1009.29,-366.375"/><polygon fill="#000000" stroke="#000000" points="1012.77,-366.769 1010.96,-356.331 1005.87,-365.623 1012.77,-366.769"/></g><!-- terminator_block_28 --><g id="node25" class="node"><title>terminator_block_28</title><ellipse fill="url(#g-terminatorvzvllf91sbydz3f4z70c0udi)" stroke="#C32F06" cx="1381" cy="-464.5" rx="68.7474" ry="18"/><text text-anchor="start" x="1330.5" y="-462" font-family="Open Sans" font-size="10.00" fill="white">ask user for numbers</text></g><!-- module_block_19&#45;&gt;terminator_block_28 --><g id="edge27" class="edge"><title>module_block_19->terminator_block_28</title><path fill="none" stroke="#000000" stroke-dasharray="1,5" d="M1039.61,-464.5C1130.4,-464.5 1221.19,-464.5 1311.99,-464.5"/></g><!-- nop_block_21 --><g id="node19" class="node"><title>nop_block_21</title><ellipse fill="#000000" stroke="#000000" cx="1068" cy="-260" rx="1.8" ry="1.8"/><text text-anchor="start" x="1063.2" y="-265.8" font-family="Open Sans" font-weight="bold" font-size="10.00" fill="#000000"> </text></g><!-- process_block_20&#45;&gt;nop_block_21 --><g id="edge29" class="edge"><title>process_block_20->nop_block_21</title><path fill="none" stroke="#000000" d="M1026.52,-319.909C1040.48,-299.747 1061.77,-269.001 1066.87,-261.629"/></g><!-- ifs_block_22 --><g id="node20" class="node"><title>ifs_block_22</title><polygon fill="url(#g-decisionvzvllf91sbydz3f4z70c0udi)" stroke="#d1461b" points="1068,-215 988.826,-197 1068,-179 1147.17,-197 1068,-215"/><text text-anchor="start" x="1028.5" y="-194.5" font-family="Open Sans" font-size="10.00" fill="white">i &lt; total_number</text></g><!-- nop_block_21&#45;&gt;ifs_block_22 --><g id="edge31" class="edge"><title>nop_block_21->ifs_block_22</title><path fill="none" stroke="#000000" d="M1068,-258.182C1068,-253.199 1068,-238.781 1068,-225.194"/><polygon fill="#000000" stroke="#000000" points="1071.5,-225.135 1068,-215.135 1064.5,-225.135 1071.5,-225.135"/></g><!-- process_block_23 --><g id="node21" class="node"><title>process_block_23</title><polygon fill="url(#g-processvzvllf91sbydz3f4z70c0udi)" stroke="#3f51b5" points="1204.5,-127 1133.5,-127 1133.5,-91 1204.5,-91 1204.5,-127"/><text text-anchor="start" x="1140.5" y="-106.5" font-family="Open Sans" font-size="10.00" fill="white">add to total</text></g><!-- ifs_block_22&#45;&gt;process_block_23 --><g id="edge30" class="edge"><title>ifs_block_22->process_block_23</title><path fill="none" stroke="#000000" d="M1084.68,-182.469C1099.74,-169.345 1122.23,-149.749 1140.2,-134.095"/><polygon fill="#000000" stroke="#000000" points="1142.85,-136.425 1148.09,-127.217 1138.25,-131.147 1142.85,-136.425"/><text text-anchor="start" x="1131" y="-144" font-family="Open Sans" font-weight="bold" font-size="10.00" fill="#000000"> True </text></g><!-- process_block_25 --><g id="node23" class="node"><title>process_block_25</title><polygon fill="url(#g-processvzvllf91sbydz3f4z70c0udi)" stroke="#3f51b5" points="1068,-127 944,-127 944,-91 1068,-91 1068,-127"/><text text-anchor="start" x="951" y="-106.5" font-family="Open Sans" font-size="10.00" fill="white">divide total by average</text></g><!-- ifs_block_22&#45;&gt;process_block_25 --><g id="edge34" class="edge"><title>ifs_block_22->process_block_25</title><path fill="none" stroke="#000000" d="M1056.92,-181.267C1047.95,-168.539 1035.12,-150.337 1024.59,-135.386"/><polygon fill="#000000" stroke="#000000" points="1027.32,-133.183 1018.7,-127.024 1021.6,-137.214 1027.32,-133.183"/><text text-anchor="start" x="1036" y="-144" font-family="Open Sans" font-weight="bold" font-size="10.00" fill="#000000"> False </text></g><!-- process_block_24 --><g id="node22" class="node"><title>process_block_24</title><polygon fill="url(#g-processvzvllf91sbydz3f4z70c0udi)" stroke="#3f51b5" points="1253,-64 1193,-64 1193,-28 1253,-28 1253,-64"/><text text-anchor="start" x="1200" y="-43.5" font-family="Open Sans" font-size="10.00" fill="white">add 1 to i</text></g><!-- process_block_23&#45;&gt;process_block_24 --><g id="edge32" class="edge"><title>process_block_23->process_block_24</title><path fill="none" stroke="#000000" d="M1184.62,-90.7778C1189.61,-84.952 1195.24,-78.3845 1200.62,-72.1109"/><polygon fill="#000000" stroke="#000000" points="1203.38,-74.2699 1207.23,-64.3995 1198.06,-69.7143 1203.38,-74.2699"/></g><!-- process_block_24&#45;&gt;nop_block_21 --><g id="edge33" class="edge"><title>process_block_24->nop_block_21</title><path fill="none" stroke="#000000" d="M1230.86,-64.2923C1236.9,-80.893 1243.23,-105.924 1237,-127 1223.79,-171.688 1215.97,-185.373 1180,-215 1148.92,-240.597 1101.41,-253.119 1079.63,-257.774"/><polygon fill="#000000" stroke="#000000" points="1078.92,-254.347 1069.78,-259.703 1080.27,-261.217 1078.92,-254.347"/></g><!-- terminator_block_26 --><g id="node24" class="node"><title>terminator_block_26</title><ellipse fill="url(#g-terminatorvzvllf91sbydz3f4z70c0udi)" stroke="#C32F06" cx="1006" cy="-46" rx="33.6077" ry="18"/><text text-anchor="start" x="985.5" y="-43.5" font-family="Open Sans" font-size="10.00" fill="white"> average</text></g><!-- process_block_25&#45;&gt;terminator_block_26 --><g id="edge35" class="edge"><title>process_block_25->terminator_block_26</title><path fill="none" stroke="#000000" d="M1006,-90.7778C1006,-85.7287 1006,-80.1226 1006,-74.6335"/><polygon fill="#000000" stroke="#000000" points="1009.5,-74.3995 1006,-64.3995 1002.5,-74.3995 1009.5,-74.3995"/></g><!-- terminator_block_29 --><g id="node26" class="node"><title>terminator_block_29</title><ellipse fill="url(#g-terminatorvzvllf91sbydz3f4z70c0udi)" stroke="#C32F06" cx="1381" cy="-338" rx="35.8171" ry="18"/><text text-anchor="start" x="1358.5" y="-335.5" font-family="Open Sans" font-size="10.00" fill="white"> numbers</text></g><!-- terminator_block_28&#45;&gt;terminator_block_29 --><g id="edge36" class="edge"><title>terminator_block_28->terminator_block_29</title><path fill="none" stroke="#000000" d="M1381,-446.376C1381,-425.428 1381,-390.701 1381,-366.212"/><polygon fill="#000000" stroke="#000000" points="1384.5,-366.091 1381,-356.091 1377.5,-366.091 1384.5,-366.091"/></g><!-- terminator_block_32 --><g id="node28" class="node"><title>terminator_block_32</title><ellipse fill="url(#g-terminatorvzvllf91sbydz3f4z70c0udi)" stroke="#C32F06" cx="1158" cy="-628" rx="68.7474" ry="18"/><text text-anchor="start" x="1107.5" y="-625.5" font-family="Open Sans" font-size="10.00" fill="white"> the weights of items</text></g><!-- terminator_block_31&#45;&gt;terminator_block_32 --><g id="edge37" class="edge"><title>terminator_block_31->terminator_block_32</title><path fill="none" stroke="#000000" d="M1158,-698.163C1158,-686.098 1158,-670.065 1158,-656.371"/><polygon fill="#000000" stroke="#000000" points="1161.5,-656.011 1158,-646.011 1154.5,-656.011 1161.5,-656.011"/></g><!-- process_block_35 --><g id="node30" class="node"><title>process_block_35</title><polygon fill="url(#g-processvzvllf91sbydz3f4z70c0udi)" stroke="#3f51b5" points="1665,-278 1493,-278 1493,-242 1665,-242 1665,-278"/><text text-anchor="start" x="1500" y="-257.5" font-family="Open Sans" font-size="10.00" fill="white">use weights to calculate average</text></g><!-- terminator_block_34&#45;&gt;process_block_35 --><g id="edge38" class="edge"><title>terminator_block_34->process_block_35</title><path fill="none" stroke="#000000" d="M1579,-319.909C1579,-310.526 1579,-298.85 1579,-288.305"/><polygon fill="#000000" stroke="#000000" points="1582.5,-288.263 1579,-278.263 1575.5,-288.263 1582.5,-288.263"/></g><!-- terminator_block_36 --><g id="node31" class="node"><title>terminator_block_36</title><ellipse fill="url(#g-terminatorvzvllf91sbydz3f4z70c0udi)" stroke="#C32F06" cx="1579" cy="-197" rx="33.6077" ry="18"/><text text-anchor="start" x="1558.5" y="-194.5" font-family="Open Sans" font-size="10.00" fill="white"> average</text></g><!-- process_block_35&#45;&gt;terminator_block_36 --><g id="edge39" class="edge"><title>process_block_35->terminator_block_36</title><path fill="none" stroke="#000000" d="M1579,-241.778C1579,-236.729 1579,-231.123 1579,-225.634"/><polygon fill="#000000" stroke="#000000" points="1582.5,-225.399 1579,-215.4 1575.5,-225.4 1582.5,-225.399"/></g></g></svg>